<mxfile host="65bd71144e">
    <diagram id="kb6ERmdoE3fj__gCxbpV" name="Page-1">
        <mxGraphModel dx="1696" dy="706" grid="1" gridSize="10" guides="1" tooltips="1" connect="1" arrows="1" fold="1" page="0" pageScale="1" pageWidth="827" pageHeight="1169" math="0" shadow="0">
            <root>
                <mxCell id="0"/>
                <mxCell id="1" parent="0"/>
                <mxCell id="EBAIrEwSQ_sO8G7dM4pI-14" style="edgeStyle=orthogonalEdgeStyle;rounded=0;orthogonalLoop=1;jettySize=auto;html=1;exitX=0.5;exitY=1;exitDx=0;exitDy=0;entryX=0.5;entryY=0;entryDx=0;entryDy=0;" parent="1" source="EBAIrEwSQ_sO8G7dM4pI-9" target="m3naWr25p_J3Rivu2WGc-2" edge="1">
                    <mxGeometry relative="1" as="geometry">
                        <Array as="points"/>
                        <mxPoint x="250" y="-100" as="targetPoint"/>
                    </mxGeometry>
                </mxCell>
                <object label="" type="initialstate" id="EBAIrEwSQ_sO8G7dM4pI-9">
                    <mxCell style="ellipse;whiteSpace=wrap;html=1;aspect=fixed;glass=0;sketch=0;fillColor=#000000;" parent="1" vertex="1">
                        <mxGeometry x="285" y="-330" width="30" height="30" as="geometry"/>
                    </mxCell>
                </object>
                <mxCell id="EBAIrEwSQ_sO8G7dM4pI-15" style="edgeStyle=orthogonalEdgeStyle;rounded=0;orthogonalLoop=1;jettySize=auto;html=1;exitX=0.5;exitY=0;exitDx=0;exitDy=0;entryX=0;entryY=0.25;entryDx=0;entryDy=0;" parent="1" source="EBAIrEwSQ_sO8G7dM4pI-10" target="m3naWr25p_J3Rivu2WGc-2" edge="1">
                    <mxGeometry relative="1" as="geometry">
                        <mxPoint x="-240" y="-37.5" as="targetPoint"/>
                    </mxGeometry>
                </mxCell>
                <mxCell id="EBAIrEwSQ_sO8G7dM4pI-18" value="stopButtonRelease" style="edgeLabel;html=1;align=center;verticalAlign=middle;resizable=0;points=[];" parent="EBAIrEwSQ_sO8G7dM4pI-15" vertex="1" connectable="0">
                    <mxGeometry x="0.3111" y="1" relative="1" as="geometry">
                        <mxPoint x="-19" y="1" as="offset"/>
                    </mxGeometry>
                </mxCell>
                <object label="AlarmOn" type="state" id="EBAIrEwSQ_sO8G7dM4pI-10">
                    <mxCell style="swimlane;rounded=1;whiteSpace=wrap;html=1;glass=0;sketch=0;startSize=23;" parent="1" vertex="1">
                        <mxGeometry x="-950" y="210" width="510" height="150" as="geometry"/>
                    </mxCell>
                </object>
                <object label="" type="initialstate" id="39">
                    <mxCell style="ellipse;whiteSpace=wrap;html=1;aspect=fixed;glass=0;sketch=0;fillColor=#000000;" parent="EBAIrEwSQ_sO8G7dM4pI-10" vertex="1">
                        <mxGeometry x="30" y="70" width="30" height="30" as="geometry"/>
                    </mxCell>
                </object>
                <object label="Beep" type="state" id="42">
                    <mxCell style="swimlane;rounded=1;whiteSpace=wrap;html=1;glass=0;sketch=0;startSize=23;" parent="EBAIrEwSQ_sO8G7dM4pI-10" vertex="1">
                        <mxGeometry x="100" y="55" width="100" height="60" as="geometry"/>
                    </mxCell>
                </object>
                <mxCell id="43" style="edgeStyle=none;html=1;exitX=1;exitY=0.5;exitDx=0;exitDy=0;entryX=0;entryY=0.5;entryDx=0;entryDy=0;" parent="EBAIrEwSQ_sO8G7dM4pI-10" source="39" target="42" edge="1">
                    <mxGeometry relative="1" as="geometry">
                        <mxPoint x="370" y="-355.2857142857142" as="targetPoint"/>
                    </mxGeometry>
                </mxCell>
                <object label="AlarmOnWaitRelease" type="state" id="48">
                    <mxCell style="swimlane;rounded=1;whiteSpace=wrap;html=1;glass=0;sketch=0;startSize=23;" parent="EBAIrEwSQ_sO8G7dM4pI-10" vertex="1">
                        <mxGeometry x="330" y="55" width="150" height="60" as="geometry"/>
                    </mxCell>
                </object>
                <mxCell id="40" style="edgeStyle=none;html=1;exitX=1;exitY=0.5;exitDx=0;exitDy=0;entryX=0;entryY=0.5;entryDx=0;entryDy=0;" parent="EBAIrEwSQ_sO8G7dM4pI-10" source="42" target="48" edge="1">
                    <mxGeometry relative="1" as="geometry"/>
                </mxCell>
                <mxCell id="41" value="stopButtonPush" style="edgeLabel;html=1;align=center;verticalAlign=middle;resizable=0;points=[];" parent="40" vertex="1" connectable="0">
                    <mxGeometry x="0.3958" y="-1" relative="1" as="geometry">
                        <mxPoint x="-21" y="-1" as="offset"/>
                    </mxGeometry>
                </mxCell>
                <mxCell id="EBAIrEwSQ_sO8G7dM4pI-16" style="edgeStyle=orthogonalEdgeStyle;rounded=0;orthogonalLoop=1;jettySize=auto;html=1;exitX=0;exitY=0.75;exitDx=0;exitDy=0;entryX=0.5;entryY=1;entryDx=0;entryDy=0;" parent="1" source="EBAIrEwSQ_sO8G7dM4pI-12" target="EBAIrEwSQ_sO8G7dM4pI-10" edge="1">
                    <mxGeometry relative="1" as="geometry">
                        <mxPoint x="-280" y="260" as="targetPoint"/>
                    </mxGeometry>
                </mxCell>
                <mxCell id="EBAIrEwSQ_sO8G7dM4pI-21" value="countDownEnd" style="edgeLabel;html=1;align=center;verticalAlign=middle;resizable=0;points=[];" parent="EBAIrEwSQ_sO8G7dM4pI-16" vertex="1" connectable="0">
                    <mxGeometry x="-0.0875" y="1" relative="1" as="geometry">
                        <mxPoint x="95" as="offset"/>
                    </mxGeometry>
                </mxCell>
                <object label="Countdown" type="state" id="EBAIrEwSQ_sO8G7dM4pI-12">
                    <mxCell style="swimlane;rounded=1;whiteSpace=wrap;html=1;glass=0;sketch=0;startSize=23;" parent="1" vertex="1">
                        <mxGeometry x="-30" y="450" width="660" height="190" as="geometry"/>
                    </mxCell>
                </object>
                <object label="" type="initialstate" id="28">
                    <mxCell style="ellipse;whiteSpace=wrap;html=1;aspect=fixed;glass=0;sketch=0;fillColor=#000000;" parent="EBAIrEwSQ_sO8G7dM4pI-12" vertex="1">
                        <mxGeometry x="35" y="98.75" width="30" height="30" as="geometry"/>
                    </mxCell>
                </object>
                <mxCell id="33" style="edgeStyle=none;html=1;exitX=1;exitY=0.25;exitDx=0;exitDy=0;entryX=1;entryY=0.75;entryDx=0;entryDy=0;" parent="EBAIrEwSQ_sO8G7dM4pI-12" source="30" target="30" edge="1">
                    <mxGeometry relative="1" as="geometry">
                        <mxPoint x="335" y="98.75" as="targetPoint"/>
                        <Array as="points">
                            <mxPoint x="345" y="99"/>
                            <mxPoint x="345" y="114"/>
                            <mxPoint x="345" y="129"/>
                        </Array>
                    </mxGeometry>
                </mxCell>
                <mxCell id="37" value="oneSecPass" style="edgeLabel;html=1;align=center;verticalAlign=middle;resizable=0;points=[];" parent="33" vertex="1" connectable="0">
                    <mxGeometry x="0.3958" y="-1" relative="1" as="geometry">
                        <mxPoint x="18" y="-14" as="offset"/>
                    </mxGeometry>
                </mxCell>
                <object label="WaitOneSec" type="state" id="30">
                    <mxCell style="swimlane;rounded=1;whiteSpace=wrap;html=1;glass=0;sketch=0;startSize=23;" parent="EBAIrEwSQ_sO8G7dM4pI-12" vertex="1">
                        <mxGeometry x="165" y="83.75" width="100" height="60" as="geometry"/>
                    </mxCell>
                </object>
                <mxCell id="29" style="edgeStyle=none;html=1;exitX=1;exitY=0.5;exitDx=0;exitDy=0;entryX=0;entryY=0.5;entryDx=0;entryDy=0;" parent="EBAIrEwSQ_sO8G7dM4pI-12" source="28" target="30" edge="1">
                    <mxGeometry relative="1" as="geometry">
                        <mxPoint x="105" y="113.46428571428578" as="targetPoint"/>
                    </mxGeometry>
                </mxCell>
                <mxCell id="35" style="edgeStyle=none;html=1;exitX=0.5;exitY=0;exitDx=0;exitDy=0;entryX=0.5;entryY=0;entryDx=0;entryDy=0;" parent="EBAIrEwSQ_sO8G7dM4pI-12" source="30" target="32" edge="1">
                    <mxGeometry relative="1" as="geometry">
                        <Array as="points">
                            <mxPoint x="215" y="46"/>
                            <mxPoint x="355" y="46.25"/>
                            <mxPoint x="550" y="46.25"/>
                        </Array>
                    </mxGeometry>
                </mxCell>
                <mxCell id="36" value="stopButtonPush" style="edgeLabel;html=1;align=center;verticalAlign=middle;resizable=0;points=[];" parent="35" vertex="1" connectable="0">
                    <mxGeometry x="0.1383" y="-1" relative="1" as="geometry">
                        <mxPoint x="-17" as="offset"/>
                    </mxGeometry>
                </mxCell>
                <object label="CountdownWaitRelease" type="state" id="32">
                    <mxCell style="swimlane;rounded=1;whiteSpace=wrap;html=1;glass=0;sketch=0;startSize=23;" parent="EBAIrEwSQ_sO8G7dM4pI-12" vertex="1">
                        <mxGeometry x="475" y="83.75" width="150" height="60" as="geometry"/>
                    </mxCell>
                </object>
                <mxCell id="EBAIrEwSQ_sO8G7dM4pI-20" style="edgeStyle=orthogonalEdgeStyle;rounded=0;orthogonalLoop=1;jettySize=auto;html=1;exitX=0;exitY=0;exitDx=80;exitDy=65;exitPerimeter=0;entryX=0.156;entryY=0.017;entryDx=0;entryDy=0;endArrow=none;endFill=0;dashed=1;entryPerimeter=0;" parent="1" source="EBAIrEwSQ_sO8G7dM4pI-19" target="EBAIrEwSQ_sO8G7dM4pI-10" edge="1">
                    <mxGeometry relative="1" as="geometry">
                        <Array as="points">
                            <mxPoint x="-870" y="45"/>
                        </Array>
                    </mxGeometry>
                </mxCell>
                <object label="" type="note" id="EBAIrEwSQ_sO8G7dM4pI-19">
                    <mxCell style="shape=note;whiteSpace=wrap;html=1;backgroundOutline=1;darkOpacity=0.05;glass=0;sketch=0;fillColor=#ffffff;" parent="1" vertex="1">
                        <mxGeometry x="-1020" y="-20" width="80" height="100" as="geometry"/>
                    </mxCell>
                </object>
                <object label="TimerSet" type="state" id="m3naWr25p_J3Rivu2WGc-2">
                    <mxCell style="swimlane;rounded=1;whiteSpace=wrap;html=1;glass=0;sketch=0;startSize=23;" parent="1" vertex="1">
                        <mxGeometry x="-210" y="-150" width="1080" height="440" as="geometry">
                            <mxRectangle x="-270" y="-40" width="80" height="23" as="alternateBounds"/>
                        </mxGeometry>
                    </mxCell>
                </object>
                <mxCell id="12" style="edgeStyle=none;html=1;exitX=0.5;exitY=1;exitDx=0;exitDy=0;" parent="m3naWr25p_J3Rivu2WGc-2" source="7" target="9" edge="1">
                    <mxGeometry relative="1" as="geometry"/>
                </mxCell>
                <object label="" type="initialstate" id="7">
                    <mxCell style="ellipse;whiteSpace=wrap;html=1;aspect=fixed;glass=0;sketch=0;fillColor=#000000;" parent="m3naWr25p_J3Rivu2WGc-2" vertex="1">
                        <mxGeometry x="521.67" y="50" width="30" height="30" as="geometry"/>
                    </mxCell>
                </object>
                <mxCell id="19" style="edgeStyle=none;html=1;entryX=1.035;entryY=0.367;entryDx=0;entryDy=0;entryPerimeter=0;exitX=0.05;exitY=0.367;exitDx=0;exitDy=0;exitPerimeter=0;" parent="m3naWr25p_J3Rivu2WGc-2" source="9" target="17" edge="1">
                    <mxGeometry relative="1" as="geometry">
                        <mxPoint x="451.67" y="132" as="sourcePoint"/>
                    </mxGeometry>
                </mxCell>
                <mxCell id="25" value="SecButtonPush" style="edgeLabel;html=1;align=center;verticalAlign=middle;resizable=0;points=[];" parent="19" vertex="1" connectable="0">
                    <mxGeometry x="-0.2017" y="-2" relative="1" as="geometry">
                        <mxPoint x="-13" as="offset"/>
                    </mxGeometry>
                </mxCell>
                <mxCell id="22" style="edgeStyle=none;html=1;entryX=0.5;entryY=0;entryDx=0;entryDy=0;exitX=0.5;exitY=1;exitDx=0;exitDy=0;" parent="m3naWr25p_J3Rivu2WGc-2" source="71" target="21" edge="1">
                    <mxGeometry relative="1" as="geometry">
                        <mxPoint x="536.67" y="300" as="sourcePoint"/>
                    </mxGeometry>
                </mxCell>
                <mxCell id="24" value="startButtonPush" style="edgeLabel;html=1;align=center;verticalAlign=middle;resizable=0;points=[];" parent="22" vertex="1" connectable="0">
                    <mxGeometry x="-0.4333" relative="1" as="geometry">
                        <mxPoint y="13" as="offset"/>
                    </mxGeometry>
                </mxCell>
                <object label="Idle" type="state" id="9">
                    <mxCell style="swimlane;rounded=1;whiteSpace=wrap;html=1;glass=0;sketch=0;startSize=23;" parent="m3naWr25p_J3Rivu2WGc-2" vertex="1">
                        <mxGeometry x="486.67" y="110" width="100" height="60" as="geometry"/>
                    </mxCell>
                </object>
                <mxCell id="15" style="edgeStyle=none;html=1;exitX=0;exitY=0.75;exitDx=0;exitDy=0;entryX=1;entryY=0.25;entryDx=0;entryDy=0;" parent="m3naWr25p_J3Rivu2WGc-2" source="14" target="71" edge="1">
                    <mxGeometry relative="1" as="geometry"/>
                </mxCell>
                <mxCell id="26" value="MinButtonRelease" style="edgeLabel;html=1;align=center;verticalAlign=middle;resizable=0;points=[];" parent="15" vertex="1" connectable="0">
                    <mxGeometry x="-0.496" y="-3" relative="1" as="geometry">
                        <mxPoint x="-44" y="15" as="offset"/>
                    </mxGeometry>
                </mxCell>
                <mxCell id="101" style="edgeStyle=none;html=1;exitX=1;exitY=0.5;exitDx=0;exitDy=0;entryX=0;entryY=0.5;entryDx=0;entryDy=0;" edge="1" parent="m3naWr25p_J3Rivu2WGc-2" source="14" target="100">
                    <mxGeometry relative="1" as="geometry"/>
                </mxCell>
                <mxCell id="102" value="MinButtonHold3s" style="edgeLabel;html=1;align=center;verticalAlign=middle;resizable=0;points=[];" vertex="1" connectable="0" parent="101">
                    <mxGeometry x="0.2071" y="-1" relative="1" as="geometry">
                        <mxPoint x="-17" y="-1" as="offset"/>
                    </mxGeometry>
                </mxCell>
                <object label="AddOneMin" type="state" id="14">
                    <mxCell style="swimlane;rounded=1;whiteSpace=wrap;html=1;glass=0;sketch=0;startSize=23;" parent="m3naWr25p_J3Rivu2WGc-2" vertex="1">
                        <mxGeometry x="721.67" y="110" width="100" height="60" as="geometry"/>
                    </mxCell>
                </object>
                <mxCell id="13" style="edgeStyle=none;html=1;entryX=0;entryY=0.25;entryDx=0;entryDy=0;exitX=1;exitY=0.25;exitDx=0;exitDy=0;" parent="m3naWr25p_J3Rivu2WGc-2" source="9" target="14" edge="1">
                    <mxGeometry relative="1" as="geometry">
                        <mxPoint x="646.67" y="140" as="targetPoint"/>
                        <mxPoint x="601.67" y="130" as="sourcePoint"/>
                    </mxGeometry>
                </mxCell>
                <mxCell id="23" value="MinButtonPush" style="edgeLabel;html=1;align=center;verticalAlign=middle;resizable=0;points=[];" parent="13" vertex="1" connectable="0">
                    <mxGeometry x="0.384" relative="1" as="geometry">
                        <mxPoint x="-22" as="offset"/>
                    </mxGeometry>
                </mxCell>
                <mxCell id="20" style="edgeStyle=none;html=1;exitX=1;exitY=0.75;exitDx=0;exitDy=0;entryX=0;entryY=0.25;entryDx=0;entryDy=0;" parent="m3naWr25p_J3Rivu2WGc-2" source="17" target="71" edge="1">
                    <mxGeometry relative="1" as="geometry"/>
                </mxCell>
                <mxCell id="27" value="SecButtonRelease" style="edgeLabel;html=1;align=center;verticalAlign=middle;resizable=0;points=[];" parent="20" vertex="1" connectable="0">
                    <mxGeometry x="0.3478" y="1" relative="1" as="geometry">
                        <mxPoint x="-1" y="-24" as="offset"/>
                    </mxGeometry>
                </mxCell>
                <mxCell id="104" style="edgeStyle=none;html=1;exitX=0;exitY=0.5;exitDx=0;exitDy=0;entryX=1;entryY=0.5;entryDx=0;entryDy=0;" edge="1" parent="m3naWr25p_J3Rivu2WGc-2" source="17" target="103">
                    <mxGeometry relative="1" as="geometry">
                        <Array as="points"/>
                    </mxGeometry>
                </mxCell>
                <mxCell id="105" value="SecButtonHold3s" style="edgeLabel;html=1;align=center;verticalAlign=middle;resizable=0;points=[];" vertex="1" connectable="0" parent="104">
                    <mxGeometry x="-0.4458" y="6" relative="1" as="geometry">
                        <mxPoint x="-28" y="-6" as="offset"/>
                    </mxGeometry>
                </mxCell>
                <object label="AddOneSec" type="state" id="17">
                    <mxCell style="swimlane;rounded=1;whiteSpace=wrap;html=1;glass=0;sketch=0;startSize=23;" parent="m3naWr25p_J3Rivu2WGc-2" vertex="1">
                        <mxGeometry x="251.67000000000002" y="110" width="100" height="60" as="geometry"/>
                    </mxCell>
                </object>
                <object label="TimerWaitRelease" type="state" id="21">
                    <mxCell style="swimlane;rounded=1;whiteSpace=wrap;html=1;glass=0;sketch=0;startSize=23;" parent="m3naWr25p_J3Rivu2WGc-2" vertex="1">
                        <mxGeometry x="469.17" y="360" width="135" height="60" as="geometry"/>
                    </mxCell>
                </object>
                <mxCell id="74" style="edgeStyle=none;html=1;exitX=0;exitY=0.75;exitDx=0;exitDy=0;entryX=0.75;entryY=1;entryDx=0;entryDy=0;" parent="m3naWr25p_J3Rivu2WGc-2" source="71" target="17" edge="1">
                    <mxGeometry relative="1" as="geometry"/>
                </mxCell>
                <mxCell id="77" value="SecButtonPush" style="edgeLabel;html=1;align=center;verticalAlign=middle;resizable=0;points=[];" parent="74" vertex="1" connectable="0">
                    <mxGeometry x="-0.1354" y="-4" relative="1" as="geometry">
                        <mxPoint x="-18" y="14" as="offset"/>
                    </mxGeometry>
                </mxCell>
                <mxCell id="75" style="edgeStyle=none;html=1;exitX=1;exitY=0.75;exitDx=0;exitDy=0;entryX=0.25;entryY=1;entryDx=0;entryDy=0;" parent="m3naWr25p_J3Rivu2WGc-2" source="71" target="14" edge="1">
                    <mxGeometry relative="1" as="geometry"/>
                </mxCell>
                <mxCell id="76" value="MinButtonPush" style="edgeLabel;html=1;align=center;verticalAlign=middle;resizable=0;points=[];" parent="75" vertex="1" connectable="0">
                    <mxGeometry x="-0.2043" y="-5" relative="1" as="geometry">
                        <mxPoint x="19" as="offset"/>
                    </mxGeometry>
                </mxCell>
                <object label="Set" type="state" id="71">
                    <mxCell style="swimlane;rounded=1;whiteSpace=wrap;html=1;glass=0;sketch=0;startSize=23;" parent="m3naWr25p_J3Rivu2WGc-2" vertex="1">
                        <mxGeometry x="486.67" y="230" width="100" height="60" as="geometry"/>
                    </mxCell>
                </object>
                <mxCell id="108" style="edgeStyle=none;html=1;exitX=0.5;exitY=1;exitDx=0;exitDy=0;entryX=1;entryY=0.75;entryDx=0;entryDy=0;" edge="1" parent="m3naWr25p_J3Rivu2WGc-2" source="100" target="71">
                    <mxGeometry relative="1" as="geometry">
                        <mxPoint x="630" y="280" as="targetPoint"/>
                        <Array as="points">
                            <mxPoint x="1012" y="275"/>
                        </Array>
                    </mxGeometry>
                </mxCell>
                <mxCell id="109" value="MinButtonRelease" style="edgeLabel;html=1;align=center;verticalAlign=middle;resizable=0;points=[];" vertex="1" connectable="0" parent="108">
                    <mxGeometry x="-0.1667" relative="1" as="geometry">
                        <mxPoint x="-55" as="offset"/>
                    </mxGeometry>
                </mxCell>
                <object label="AddMinHold" type="state" id="100">
                    <mxCell style="swimlane;rounded=1;whiteSpace=wrap;html=1;glass=0;sketch=0;startSize=23;" vertex="1" parent="m3naWr25p_J3Rivu2WGc-2">
                        <mxGeometry x="961.67" y="110" width="100" height="60" as="geometry"/>
                    </mxCell>
                </object>
                <mxCell id="106" style="edgeStyle=none;html=1;exitX=0.5;exitY=1;exitDx=0;exitDy=0;entryX=0;entryY=0.75;entryDx=0;entryDy=0;" edge="1" parent="m3naWr25p_J3Rivu2WGc-2" source="103" target="71">
                    <mxGeometry relative="1" as="geometry">
                        <mxPoint x="440" y="280" as="targetPoint"/>
                        <Array as="points">
                            <mxPoint x="80" y="275"/>
                        </Array>
                    </mxGeometry>
                </mxCell>
                <mxCell id="107" value="SecButtonRelease" style="edgeLabel;html=1;align=center;verticalAlign=middle;resizable=0;points=[];" vertex="1" connectable="0" parent="106">
                    <mxGeometry x="-0.4486" y="-3" relative="1" as="geometry">
                        <mxPoint x="123" y="-8" as="offset"/>
                    </mxGeometry>
                </mxCell>
                <object label="AddSecHold" type="state" id="103">
                    <mxCell style="swimlane;rounded=1;whiteSpace=wrap;html=1;glass=0;sketch=0;startSize=23;" vertex="1" parent="m3naWr25p_J3Rivu2WGc-2">
                        <mxGeometry x="30" y="110" width="100" height="60" as="geometry"/>
                    </mxCell>
                </object>
                <mxCell id="110" style="edgeStyle=none;html=1;exitX=0.25;exitY=0;exitDx=0;exitDy=0;entryX=0.75;entryY=0;entryDx=0;entryDy=0;" edge="1" parent="m3naWr25p_J3Rivu2WGc-2" source="103" target="103">
                    <mxGeometry relative="1" as="geometry">
                        <Array as="points">
                            <mxPoint x="55" y="60"/>
                            <mxPoint x="80" y="60"/>
                            <mxPoint x="105" y="60"/>
                        </Array>
                    </mxGeometry>
                </mxCell>
                <mxCell id="111" value="Pass250ms" style="edgeLabel;html=1;align=center;verticalAlign=middle;resizable=0;points=[];" vertex="1" connectable="0" parent="110">
                    <mxGeometry x="0.4811" y="1" relative="1" as="geometry">
                        <mxPoint y="9" as="offset"/>
                    </mxGeometry>
                </mxCell>
                <mxCell id="112" style="edgeStyle=none;html=1;exitX=0.75;exitY=0;exitDx=0;exitDy=0;entryX=0.25;entryY=0;entryDx=0;entryDy=0;" edge="1" parent="m3naWr25p_J3Rivu2WGc-2" source="100" target="100">
                    <mxGeometry relative="1" as="geometry">
                        <Array as="points">
                            <mxPoint x="1037" y="60"/>
                            <mxPoint x="1012" y="60"/>
                            <mxPoint x="987" y="60"/>
                        </Array>
                    </mxGeometry>
                </mxCell>
                <mxCell id="113" value="Pass250ms" style="edgeLabel;html=1;align=center;verticalAlign=middle;resizable=0;points=[];" vertex="1" connectable="0" parent="112">
                    <mxGeometry x="0.4701" y="-2" relative="1" as="geometry">
                        <mxPoint y="10" as="offset"/>
                    </mxGeometry>
                </mxCell>
                <mxCell id="HdLz7Pnjk3gmC13WeZwF-1" style="edgeStyle=orthogonalEdgeStyle;rounded=0;orthogonalLoop=1;jettySize=auto;html=1;exitX=0.75;exitY=0;exitDx=0;exitDy=0;entryX=0.75;entryY=1;entryDx=0;entryDy=0;" parent="1" source="EBAIrEwSQ_sO8G7dM4pI-12" target="m3naWr25p_J3Rivu2WGc-2" edge="1">
                    <mxGeometry relative="1" as="geometry">
                        <mxPoint x="560" y="320" as="targetPoint"/>
                        <mxPoint x="555" y="530" as="sourcePoint"/>
                    </mxGeometry>
                </mxCell>
                <mxCell id="HdLz7Pnjk3gmC13WeZwF-2" value="stopButtonRelease" style="edgeLabel;html=1;align=center;verticalAlign=middle;resizable=0;points=[];" parent="HdLz7Pnjk3gmC13WeZwF-1" vertex="1" connectable="0">
                    <mxGeometry x="-0.0875" y="1" relative="1" as="geometry">
                        <mxPoint x="-50" y="31" as="offset"/>
                    </mxGeometry>
                </mxCell>
                <mxCell id="50" style="edgeStyle=none;html=1;entryX=0.25;entryY=0;entryDx=0;entryDy=0;exitX=0.25;exitY=1;exitDx=0;exitDy=0;" parent="1" source="m3naWr25p_J3Rivu2WGc-2" target="EBAIrEwSQ_sO8G7dM4pI-12" edge="1">
                    <mxGeometry relative="1" as="geometry">
                        <mxPoint x="135" y="310" as="sourcePoint"/>
                        <Array as="points">
                            <mxPoint x="60" y="370"/>
                            <mxPoint x="135" y="370"/>
                        </Array>
                    </mxGeometry>
                </mxCell>
                <mxCell id="51" value="startButtonRelease" style="edgeLabel;html=1;align=center;verticalAlign=middle;resizable=0;points=[];" parent="50" vertex="1" connectable="0">
                    <mxGeometry x="0.3088" y="-1" relative="1" as="geometry">
                        <mxPoint x="2" y="29" as="offset"/>
                    </mxGeometry>
                </mxCell>
            </root>
        </mxGraphModel>
    </diagram>
</mxfile>